<svg id="Capa_1" enable-background="new 0 0 512 512" height="512" viewBox="0 0 512 512" width="512" xmlns="http://www.w3.org/2000/svg"><g><g><g><g><g><g id="XMLID_1242_"><g id="XMLID_1243_"><g id="XMLID_1244_"><g id="XMLID_1245_"><g id="XMLID_1261_"><g id="XMLID_1262_"><g id="XMLID_1263_"><g id="XMLID_1264_"><g id="XMLID_1265_"><g id="XMLID_1266_"><g id="XMLID_1267_"><g id="XMLID_1268_"><g id="XMLID_1269_"><g id="XMLID_1270_"><g><path d="m512 256c0 141.38-114.62 256-256 256-11.99 0-23.78-.82-35.33-2.42-47.64-6.57-91.1-26.26-126.61-55.3-16.18-13.23-5.38-41.17-17.91-57.93-2.18-2.93-5.07-5.52-8.38-7.9-15.86-11.41-41.6-18.18-48.36-34.52-12.51-30.16-19.41-63.24-19.41-97.93 0-141.38 114.62-256 256-256 105.91 0 196.81 64.33 235.74 156.04 10.87 25.58 17.69 53.28 19.66 82.32.4 5.83.6 11.71.6 17.64z" fill="#ef2e61"/></g></g></g></g></g></g></g></g></g></g></g></g></g></g></g></g></g></g></g><path d="m512 256c0 141.38-114.62 256-256 256-11.99 0-23.78-.82-35.33-2.42-47.64-6.57-91.1-26.26-126.61-55.3-16.18-13.23-5.38-41.17-17.91-57.93-2.18-2.93-5.07-5.52-8.38-7.9l176.22-63.34-101.75-101.75s-26.58-71.55 8.94-101.37l-1.39 15.71c12.86-14.66 34.25-18.23 51.17-8.56l60.95 34.84s57.51 54.7 82.29 53.48c13.61-.67 19.75-3.12 22.51-5.19l-88.43-88.43 111.19-7.42 121.93 121.94c.4 5.83.6 11.71.6 17.64z" fill="#a81640"/><g><path d="m145.686 335.185-.741-48.61 15.668-3.781c4.011-.968 8.123-1.457 12.249-1.457h89.051c8.69 0 16.962 29.788 16.962 29.788s4.087 24.06-16.962 24.06z" fill="#ffb985"/><path d="m275.274 335.185c21.05 0 38.114-17.064 38.114-38.113 0-8.69-7.045-15.734-15.734-15.734h-35.741v53.848h13.361z" fill="#ef9360"/><g><path d="m283.943 357.301-22.03 36.589-102.833-2.58-65.02 62.97c-32.5-26.58-58.35-60.99-74.65-100.35l125.53-67.35c2.43 22.17 19.55 39.51 41.02 42.72 2.44.37 4.9.54 7.42.53l68.533-.32z" fill="#ffdaae"/></g><g><path d="m397.87 296.82c-6.78-10.28-18.13-15.48-29.75-15.48-8.17 0-16.46 2.57-23.4 7.75l-39.02 29.61c-9.18 6.97-20.39 10.76-31.92 10.81l-11.867.047v64.333c27.214-.096 60.189-3.176 81.647-19.181l41.9-31.95c12.16-9.689 22.71-30.339 12.41-45.939z" fill="#ffc999"/></g></g><path d="m149.48 166.93c.34 20.03 16.91 36.32 36.94 36.32 7.43 0 14.58-2.19 20.69-6.33 1.94-1.31 3.85-2.95 5.84-5.03l8.39-8.75 24.46 25.35-7.46 7.79c-3.74 3.88-7.49 7.08-11.48 9.79-11.97 8.11-25.96 12.39-40.44 12.39-19.05 0-37.03-7.36-50.62-20.74-13.56-13.36-21.2-31.19-21.52-50.21-.65-39.67 31.07-72.57 70.72-73.34 17.32-.34 33.97 5.46 47.26 16.41l.2-.3 2.83 2.9 26.623 27.721 3.972 33.705-3.972 17.113-50.683-52.789c-7-6.35-16.11-9.75-25.55-9.56-20.29.39-36.53 17.24-36.2 37.56z" fill="#97c4e8"/><g><g><path d="m338.839 94.171c-18.794-.366-36.686 6.446-50.442 19.191l-10.114 10.481 24.86 24.847 9.474-9.773c7.004-6.351 16.079-9.743 25.538-9.548 20.292.394 36.53 17.247 36.196 37.566-.333 20.027-16.905 36.319-36.943 36.319-7.421 0-14.575-2.19-20.694-6.337-1.914-1.294-3.811-2.927-5.796-4.993l-49.005-51.022v50.818l23.601 24.582c3.725 3.874 7.471 7.069 11.455 9.768 11.969 8.106 25.953 12.391 40.44 12.391 19.058 0 37.036-7.366 50.62-20.74 13.568-13.358 21.21-31.19 21.52-50.21.66-39.669-31.061-72.569-70.71-73.34z" fill="#649cd8"/></g></g></g></svg>