<svg xmlns="http://www.w3.org/2000/svg" width="16" height="13" viewBox="0 0 16 13">
  <metadata><?xpacket begin="﻿" id="W5M0MpCehiHzreSzNTczkc9d"?>
<x:xmpmeta xmlns:x="adobe:ns:meta/" x:xmptk="Adobe XMP Core 5.6-c138 79.159824, 2016/09/14-01:09:01        ">
   <rdf:RDF xmlns:rdf="http://www.w3.org/1999/02/22-rdf-syntax-ns#">
      <rdf:Description rdf:about=""/>
   </rdf:RDF>
</x:xmpmeta>
                                                                                                    
                                                                                                    
                                                                                                    
                                                                                                    
                                                                                                    
                                                                                                    
                                                                                                    
                                                                                                    
                                                                                                    
                                                                                                    
                                                                                                    
                                                                                                    
                                                                                                    
                                                                                                    
                                                                                                    
                                                                                                    
                                                                                                    
                                                                                                    
                                                                                                    
                                                                                                    
                           
<?xpacket end="w"?></metadata>
<defs>
    <style>
      .cls-1 {
        fill: #21c6dd;
        fill-rule: evenodd;
      }
    </style>
  </defs>
  <path id="Path" class="cls-1" d="M1337,3857.51a7.138,7.138,0,0,1-1.9.53,3.162,3.162,0,0,0,1.43-1.81,7.168,7.168,0,0,1-2.1.81,3.269,3.269,0,0,0-5.66,2.24,2.5,2.5,0,0,0,.1.74,9.311,9.311,0,0,1-6.77-3.45,3.4,3.4,0,0,0-.43,1.64,3.279,3.279,0,0,0,1.46,2.75,4.073,4.073,0,0,1-1.5-.4v0.03a3.309,3.309,0,0,0,2.64,3.25,3.516,3.516,0,0,1-.87.1,3.376,3.376,0,0,1-.63-0.07,3.254,3.254,0,0,0,3.06,2.28,6.637,6.637,0,0,1-4.06,1.41,6.274,6.274,0,0,1-.77-0.03,9.34,9.34,0,0,0,14.37-7.91v-0.44A5.9,5.9,0,0,0,1337,3857.51Z" transform="translate(-1321 -3856)"/>
</svg>
