<svg xmlns="http://www.w3.org/2000/svg" width="16" height="13"><path d="M16 1.51a7.138 7.138 0 01-1.9.53A3.162 3.162 0 0015.53.23a7.168 7.168 0 01-2.1.81 3.269 3.269 0 00-5.66 2.24 2.5 2.5 0 00.1.74A9.311 9.311 0 011.1.57a3.4 3.4 0 00-.43 1.64 3.279 3.279 0 001.46 2.75 4.073 4.073 0 01-1.5-.4v.03a3.309 3.309 0 002.64 3.25 3.516 3.516 0 01-.87.1 3.376 3.376 0 01-.63-.07 3.254 3.254 0 003.06 2.28 6.637 6.637 0 01-4.06 1.41 6.274 6.274 0 01-.77-.03 9.34 9.34 0 0014.37-7.91v-.44A5.9 5.9 0 0016 1.51z" fill="#21c6dd" fill-rule="evenodd"/></svg>